HIERARCHY
ROOT hip
{
  OFFSET 0.0 0.0 0.0
  CHANNELS 6 Xposition Yposition Zposition Zrotation Yrotation Xrotation
  JOINT torso
  {
    OFFSET 0.0 0.0 0.0
    CHANNELS 3 Zrotation Xrotation Yrotation
    JOINT neck
    {
      OFFSET -31.42098999999993 328.8025209999999 74.3554680000002
      CHANNELS 3 Zrotation Xrotation Yrotation
      JOINT head
      {
        OFFSET 3.3519900000001144 303.81732099999994 206.53942900000015
        CHANNELS 3 Zrotation Xrotation Yrotation
        End Site
        {
          OFFSET 0.0 0.0 0.0
        }
      }
    }
    JOINT left_collar
    {
      OFFSET -31.42098999999993 328.8025209999999 74.3554680000002
      CHANNELS 3 Zrotation Xrotation Yrotation
      JOINT left_upper_arm
      {
        OFFSET -124.490479 -8.162841999999841 8.226441000000023
        CHANNELS 3 Zrotation Xrotation Yrotation
        JOINT left_forearm
        {
          OFFSET -253.595764 -1.5758060000000569 105.0729980000001
          CHANNELS 3 Zrotation Xrotation Yrotation
          JOINT left_hand
          {
            OFFSET -269.48803699999996 0.1478270000000066 -55.346191999999974
            CHANNELS 3 Zrotation Xrotation Yrotation
            End Site
            {
              OFFSET 0.0 0.0 0.0
            }
          }
        }
      }
    }
    JOINT right_collar
    {
      OFFSET -31.42098999999993 328.8025209999999 74.3554680000002
      CHANNELS 3 Zrotation Xrotation Yrotation
      JOINT right_upper_arm
      {
        OFFSET 162.02484099999998 0.46441600000002836 2.2303470000001653
        CHANNELS 3 Zrotation Xrotation Yrotation
        JOINT right_forearm
        {
          OFFSET 240.01246700000004 -25.835875999999985 121.34179699999959
          CHANNELS 3 Zrotation Xrotation Yrotation
          JOINT right_hand
          {
            OFFSET 252.48539699999992 18.910399999999868 -67.53466800000001
            CHANNELS 3 Zrotation Xrotation Yrotation
            End Site
            {
              OFFSET 0.0 0.0 0.0
            }
          }
        }
      }
    }
  }
}
MOTION
Frames: 18
Frame Time: 0.01
-234.26597052965613 264.97310602996697 1378.7176693414062 2.0062778567010344 -4.501223873686884 -0.07894512549352065 -0.5332399481714573 3.1478700423044255 0.4091867566933479 -3.210020135028681 -5.157836769656043 2.3138950245268544 0.0 0.0 0.0 0.28579249978419297 0.08595375584729083 -0.9844232804213765 51.54414801804639 8.162493027598487 27.918652825720184 36.7901234472328 -4.241800018068587 -10.517671232592312 0.0 0.0 0.0 -0.09804090312288742 -0.01033115210625963 5.8005898147230965 -48.625586474295766 5.712534859985214 -34.392880708077634 -48.444548973877716 -5.284218998079905 21.241972354793976 0.0 0.0 0.0
-234.10438318494994 264.86531299581156 1378.5687251143338 2.0224867692051633 -4.564284645307995 0.01676785969586141 -0.5495865502112828 3.163963776265542 0.4139309848384722 -3.1976310358097675 -5.14254456176175 2.30479729459055 0.0 0.0 0.0 0.270893648880777 0.08804284779822397 -1.0315014531899904 51.5519160230299 8.179907778365024 27.886584652706862 36.78180980466579 -4.232577015665608 -10.542103517856075 0.0 0.0 0.0 -0.11175019033004742 -0.009323312973559338 5.735295138382728 -48.63492384593791 5.731960788150536 -34.362747889991674 -48.42137075711664 -5.280437446026867 21.246902566569425 0.0 0.0 0.0
-233.94184708289757 264.7566930537601 1378.416530093539 2.0387055420594735 -4.6267187356431805 0.112132108227468 -0.5660423442424911 3.1795881208209065 0.4186493206740075 -3.185801092580595 -5.1281307029262955 2.296116335702819 0.0 0.0 0.0 0.25637948546830125 0.09002674510565271 -1.076781439632285 51.55956830641397 8.197607329226303 27.853914861597982 36.77357148255214 -4.223584254887683 -10.5658899784966 0.0 0.0 0.0 -0.1252644250614719 -0.008347276158812736 5.672109365032162 -48.64384906257478 5.750780971143204 -34.33352246841065 -48.3985581743803 -5.276572640868992 21.252149386820722 0.0 0.0 0.0
-233.77623769346152 264.64739049829234 1378.2582480103226 2.054590612189865 -4.688017409119834 0.20627747152239334 -0.5826047604379628 3.1943851082314545 0.4233084910565 -3.174925490794862 -5.115067860642586 2.288141611496486 0.0 0.0 0.0 0.24253284240066764 0.09185533128798887 -1.1191904948897375 51.56708146350022 8.215548734841068 27.820721033289484 36.76508282066424 -4.215008454163169 -10.588354026947904 0.0 0.0 0.0 -0.13841003172061395 -0.007414898272611678 5.612251816803715 -48.65228286535431 5.768699189237628 -34.305685909917784 -48.3762938174572 -5.272596755143717 21.257830602045452 0.0 0.0 0.0
-233.60514734271365 264.5375519825908 1378.0908149330046 2.0697850998263543 -4.747718481853825 0.2983555167181781 -0.5992781487814783 3.2080226160297225 0.4278791696490567 -3.16539455683244 -5.103820307347307 2.281158806330506 0.0 0.0 0.0 0.2296262272455747 0.09348192952769611 -1.1577057540851388 51.57444845031842 8.233679895849003 27.78710509470542 36.75596873911379 -4.207039636650729 -10.608791246815652 0.0 0.0 0.0 -0.15101934889495444 -0.006536700219524103 5.55688309999198 -48.66016369911171 5.785442290050215 -34.27968588513309 -48.354734429216926 -5.268484401686093 21.264051565044433 0.0 0.0 0.0
-233.42594322749747 264.42733324043854 1377.9110234661105 2.08392346574565 -4.805420099579631 0.38755799265004587 -0.6160714419862763 3.220205717004184 0.43233653542198736 -3.157581736895312 -5.094829286850015 2.275441062306551 0.0 0.0 0.0 0.21791417232279092 0.09486474791346708 -1.1913872166113624 51.581679838713335 8.251938307654825 27.753196333700764 36.74580999467706 -4.199866673843267 -10.626484478800522 0.0 0.0 0.0 -0.1629350441972401 -0.0057216927324945915 5.507068205324618 -48.66745074993036 5.800769983322799 -34.25592065152453 -48.33400406818108 -5.264213953935555 21.270899991781157 0.0 0.0 0.0
-233.2358323768379 264.31690424183813 1377.7156120487305 2.096635465433065 -4.860793142323152 0.4731350299454827 -0.6329952286922358 3.2306863846958547 0.4366605565885759 -3.1518317704703818 -5.088498474038842 2.2712403741196256 0.0 0.0 0.0 0.2076263381969564 0.09596816943107889 -1.2194085144845603 51.58880406505567 8.27025047496979 27.719152705257187 36.73414990661767 -4.193672553610207 -10.640720078905625 0.0 0.0 0.0 -0.17401437130120576 -0.004977271490669634 5.463742105518647 -48.674126786977425 5.814483338202601 -34.234725630569265 -48.31418761199852 -5.259768408090078 21.278442075332396 0.0 0.0 0.0
-233.03193192232823 264.2064521624656 1377.501356494252 2.1075492605323842 -4.913591863944361 0.5544126692690776 -0.6500583562259901 3.2392711333112647 0.4408359862636579 -3.148449451362761 -5.085179975742241 2.2687794216546426 0.0 0.0 0.0 0.19896169464889385 0.09676385964472714 -1.2410842775970707 51.595866548127624 8.288532121974338 27.685160117571638 36.720502524866085 -4.188629481171327 -10.650804998435838 0.0 0.0 0.0 -0.18413313322102295 -0.004309172221797197 5.427679126625846 -48.68020066697193 5.826431678435967 -34.21636263053423 -48.29532482145189 -5.255135747373358 21.286720089007357 0.0 0.0 0.0
-232.81134304930907 264.09618155071786 1377.2651609254146 2.1162936466438858 -4.9636624525979425 0.6308094047870018 -0.6672642430333005 3.2458262661370587 0.4448520766943442 -3.1476893179847982 -5.085161272479406 2.2682440808756614 0.0 0.0 0.0 0.19208403611369793 0.09723167713895838 -1.2558931077396818 51.60292763670698 8.30668929945667 27.651429474796597 36.70436216832049 -4.184893938632592 -10.656084289984559 0.0 0.0 0.0 -0.19318922405424302 -0.0037214716549046176 5.399467091360013 -48.68570932868075 5.836517730815182 -34.20101187822325 -48.277405209337914 -5.250308828358178 21.295751492489057 0.0 0.0 0.0
-232.57122705730373 263.986311113757 1377.0041453937883 2.1224994538386674 -5.010949296123348 0.7018515525846594 -0.6846071188164666 3.2502805168828077 0.44870203639993433 -3.1497465576074566 -5.088653431467744 2.269776810701903 0.0 0.0 0.0 0.18711899861939657 0.09736038147614848 -1.2634954223720152 51.61005944441572 8.324620464131833 27.61819134203011 36.68521420272398 -4.182601845279911 -10.655958599127871 0.0 0.0 0.0 -0.2011056286146256 -0.003216618251454057 5.379486903554199 -48.690719104594336 5.844701028576667 -34.18876677308147 -48.260363936519106 -5.245284853367001 21.305529426798056 0.0 0.0 0.0
-232.3088820449439 263.8770666636406 1376.7157277070578 2.125800251451166 -5.055498843687637 0.767187336858125 -0.7020684167886486 3.2526250017176133 0.4523822680870201 -3.154749362504801 -5.09578085476437 2.2734710791318737 0.0 0.0 0.0 0.18415265425576993 0.09714813824707275 -1.2637456648784673 51.617341720401 8.34221957480091 27.585688194703998 36.6625468627785 -4.181863976595238 -10.649901158736125 0.0 0.0 0.0 -0.207832765281337 -0.0027954775197228197 5.367897960457814 -48.69532620153292 5.850999673170185 -34.17963111611457 -48.24407888646543 -5.240064514190534 21.31602440559341 0.0 0.0 0.0
-232.02181883318278 263.7686699939866 1376.3976973068034 2.125832537862135 -5.097461053060633 0.8265996027710493 -0.71961352050679 3.252910549207032 0.45589143481169064 -3.1627529381167068 -5.106572778353899 2.279366965407274 0.0 0.0 0.0 0.18323167712326507 0.09660282119282561 -1.2566985843240908 51.624856978191225 8.359380206279205 27.55416433220272 36.635863859294254 -4.182761812697008 -10.63747376805446 0.0 0.0 0.0 -0.21335006851006505 -0.0024573798070138867 5.364629594220052 -48.699656244633644 5.855490594501669 -34.17351852608257 -48.228368967385094 -5.234650888957332 21.327186991660895 0.0 0.0 0.0
-231.70783483902707 263.6613237872194 1376.0482794201955 2.122235624575916 -5.137088481665985 0.880017031705174 -0.737189025725168 3.2512426190555694 0.45922940713020893 -3.1737353247419406 -5.120956713904811 2.2874480496795897 0.0 0.0 0.0 0.1843650001953929 0.09574210944861344 -1.2426094807234054 51.632685156542166 8.376000621772853 27.523853678873287 36.60469745826882 -4.18534399312927 -10.618341222286858 0.0 0.0 0.0 -0.21766673199522366 -0.002200162759653802 5.369378640091039 -48.70386283098172 5.8583084282397735 -34.170253820135265 -48.212993586694964 -5.2290481536261035 21.338951275078156 0.0 0.0 0.0
-231.36508470551706 263.5551930339307 1375.666188101751 2.1146514392588776 -5.174733112843825 0.9275236893151271 -0.7547206272546949 3.2477741385473955 0.46239614528295997 -3.18759514764983 -5.138754021898878 2.2976396721369245 0.0 0.0 0.0 0.18752681192461124 0.09459337591753161 -1.221928509857362 51.6408981126733 8.39198967182989 27.494965854625356 36.56862168386554 -4.189623551067183 -10.592283670912776 0.0 0.0 0.0 -0.22082157379533374 -0.0020202052835052277 5.381613151709442 -48.708125088290075 5.859643082238501 -34.16957624264916 -48.19765316535852 -5.223260149032748 21.351239005101558 0.0 0.0 0.0
-230.9921465813514 263.4503838112891 1375.2506671284243 2.1027244803596252 -5.210841019791242 0.9693667041773761 -0.772111697404164 3.2426966736221825 0.4653905703338871 -3.2041513550091967 -5.159677812420041 2.3098086087386185 0.0 0.0 0.0 0.19266067674097126 0.09319336209934319 -1.1952893452512225 51.64955425023756 8.407273311825174 27.467671054073424 36.5272652840811 -4.195576083688987 -10.559206429702364 0.0 0.0 0.0 -0.22288203470415335 -0.0019124543593252435 5.400582185727011 -48.71264426910573 5.859736031796645 -34.17114450146912 -48.181990531756 -5.217288842171614 21.363964226262823 0.0 0.0 0.0
-230.58808302574965 263.3469205616194 1374.8015179814654 2.0861021592613205 -5.245944978409556 1.005961854062675 -0.7892426009686634 3.2362304170919165 0.4682094800984707 -3.2231449413312543 -5.183333374346179 2.3237641717697826 0.0 0.0 0.0 0.19968451357213893 0.09158763576201408 -1.1634926828947827 51.658693566796735 8.421801461004437 27.442084407128267 36.480324099080605 -4.203138986863903 -10.51914684736828 0.0 0.0 0.0 -0.2239423706637786 -0.0018704502037390394 5.425331445147969 -48.71763942527208 5.8588753877515956 -34.17454357303755 -48.1655930618472 -5.211132744852286 21.377038208626622 0.0 0.0 0.0
-230.15249558788184 263.24472321092094 1374.3191143505194 2.064435763376536 -5.280655155406657 1.0378968139464178 -0.8059707977081403 3.2286135223618477 0.4708465709302587 -3.24424258892022 -5.209221324268191 2.339260701597755 0.0 0.0 0.0 0.20849613970252395 0.08982983011939563 -1.1274852167932672 51.66833337742779 8.435554875529238 27.418250585592382 36.42757247596963 -4.212211844167361 -10.472277919896905 0.0 0.0 0.0 -0.22412113985225532 -0.0018863587610995452 5.4547244181579675 -48.72334220378022 5.857389818057504 -34.179293174954765 -48.1479954961269 -5.204785394667775 21.390374363658953 0.0 0.0 0.0
-229.68557216448428 263.14358556937185 1373.8044027602587 2.0373822588536146 -5.315648012261527 1.065931785600004 -0.8221318078209402 3.2200913292622104 0.47329163246276174 -3.2670420954349986 -5.2367436396776625 2.356001373794359 0.0 0.0 0.0 0.21897908406001407 0.08798066599655723 -1.08833479458399 51.67846493946223 8.448551680209675 27.396129462965 36.368873373472496 -4.222658015790888 -10.418908442355935 0.0 0.0 0.0 -0.22355810800140233 -0.0019510231689968953 5.4874685069481925 -48.729990797221284 5.855641449188753 -34.18485772155709 -48.128683432098235 -5.198234041502876 21.403892749741836 0.0 0.0 0.0
